<svg width="16" height="14" viewBox="0 0 16 14" fill="none" xmlns="http://www.w3.org/2000/svg">
<path d="M10.6875 3.5H14.5V12.5H1.5V3.5H5.28125L6.03125 1.5H9.9375L10.6875 3.5ZM10.125 0H6.03125C5.40625 0 4.84375 0.40625 4.625 1L4.25 2H1.5C0.65625 2 0 2.6875 0 3.5V12.5C0 13.3438 0.65625 14 1.5 14H14.5C15.3125 14 16 13.3438 16 12.5V3.5C16 2.6875 15.3125 2 14.5 2H11.75L11.2812 0.8125C11.0938 0.34375 10.6562 0 10.125 0ZM8 11.75C10.0625 11.75 11.75 10.0938 11.75 8C11.75 5.9375 10.0625 4.25 8 4.25C5.90625 4.25 4.25 5.9375 4.25 8C4.25 10.0938 5.90625 11.75 8 11.75ZM8 5.75C9.21875 5.75 10.25 6.78125 10.25 8C10.25 9.25 9.21875 10.25 8 10.25C6.75 10.25 5.75 9.25 5.75 8C5.75 6.78125 6.75 5.75 8 5.75Z"/>
</svg>
